<?xml version="1.0" standalone="no"?>
<!DOCTYPE svg PUBLIC "-//W3C//DTD SVG 20010904//EN"
 "http://www.w3.org/TR/2001/REC-SVG-20010904/DTD/svg10.dtd">
<svg version="1.0" xmlns="http://www.w3.org/2000/svg"
 width="250.000000pt" height="79.000000pt" viewBox="0 0 250.000000 79.000000"
 preserveAspectRatio="xMidYMid meet">

<g transform="translate(0.000000,79.000000) scale(0.100000,-0.100000)"
fill="#000000" stroke="none">
<path d="M375 615 c-20 -19 -25 -34 -25 -72 0 -27 4 -63 9 -81 l10 -32 -60 0
-59 0 0 61 c0 59 -11 96 -34 111 -21 14 -84 8 -107 -11 l-23 -18 10 -184 c11
-193 18 -218 61 -238 28 -13 68 0 82 28 6 11 11 46 11 79 0 67 0 67 80 78 l50
7 0 -62 c0 -52 4 -66 25 -86 35 -36 60 -32 83 11 7 12 16 82 22 155 11 150 1
246 -27 267 -28 21 -81 15 -108 -13z"/>
<path d="M2272 588 c-17 -17 -15 -32 8 -53 17 -15 24 -16 45 -7 42 19 27 72
-20 72 -12 0 -26 -5 -33 -12z"/>
<path d="M947 522 c-22 -24 -36 -94 -37 -175 0 -124 62 -214 113 -163 8 8 19
47 25 86 18 123 74 180 146 150 17 -7 45 -13 61 -14 26 -1 30 3 33 28 7 55
-77 113 -144 100 -19 -3 -47 -19 -61 -35 l-27 -28 -23 35 c-27 38 -60 45 -86
16z"/>
<path d="M1378 505 c-81 -45 -71 -242 16 -297 31 -19 96 -21 138 -3 14 5 20 0
28 -21 28 -77 55 -103 89 -85 33 18 43 63 39 175 -3 94 -5 107 -27 130 -24 26
-64 34 -89 17 -7 -4 -27 -30 -45 -57 -18 -27 -40 -50 -50 -52 -26 -5 -41 43
-28 95 16 62 14 91 -8 103 -25 13 -30 12 -63 -5z"/>
<path d="M1749 501 c-22 -17 -24 -28 -27 -113 -4 -113 9 -172 45 -195 24 -16
26 -16 39 2 8 10 14 40 14 66 0 96 74 134 121 62 31 -49 64 -53 126 -19 25 15
47 25 48 24 1 -2 10 -25 19 -53 18 -54 40 -86 72 -103 69 -37 52 127 -22 204
-30 33 -37 36 -76 31 -24 -3 -55 -8 -70 -12 -22 -6 -28 -4 -28 8 0 8 -14 27
-32 42 -32 27 -64 30 -123 11 -16 -5 -23 1 -35 26 -18 40 -39 45 -71 19z"/>
<path d="M2284 475 c-14 -21 -16 -42 -12 -114 3 -48 12 -101 19 -117 16 -33
49 -43 69 -19 29 34 28 197 -1 253 -17 30 -54 29 -75 -3z"/>
<path d="M695 483 c-54 -15 -110 -71 -126 -127 -14 -51 -5 -97 26 -130 34 -37
116 -37 169 -1 33 23 37 23 42 7 16 -51 25 -62 48 -62 33 0 37 16 26 117 -13
120 -15 124 -53 161 -35 34 -87 48 -132 35z m85 -101 c0 -25 -45 -66 -64 -59
-21 8 -20 19 5 51 24 30 59 35 59 8z"/>
</g>
</svg>
